<svg width="40" height="36" viewBox="0 0 40 36" fill="none" xmlns="http://www.w3.org/2000/svg">
<path d="M39.1899 12.4842C38.9411 12.111 38.6093 11.8622 38.1531 11.8205C37.5724 11.7375 36.9918 11.9863 36.66 12.4425L33.8813 16.341C33.9644 16.424 34.0057 16.5068 34.0888 16.5898C34.8351 17.668 34.7524 19.0783 33.8813 20.0735L33.6739 20.2809C32.5541 21.5665 31.3098 22.7694 29.9828 23.8476L28.9046 24.7186C28.5728 24.9674 28.0752 24.9261 27.8264 24.5942C27.5776 24.2624 27.619 23.7649 27.9508 23.516L29.029 22.6449C30.2733 21.6081 31.4758 20.4883 32.5127 19.2857L32.7201 19.0783C33.0933 18.6221 33.1349 18.0001 32.8031 17.5022C32.5957 17.2118 32.3055 17.0047 31.9737 16.963C31.6419 16.88 31.2687 16.963 30.9783 17.1704L25.0061 21.318C24.3425 21.7742 23.8449 22.4793 23.5961 23.2672L21.3564 30.442H29.2778L34.5449 27.2071C35.4573 26.6265 36.1209 25.7554 36.4111 24.7186L39.3971 13.6868C39.4799 13.2722 39.4385 12.8574 39.1897 12.4842L39.1899 12.4842Z" fill="#091A7A"/>
<path d="M21.1909 35.3365C21.1909 35.5022 21.2739 35.6683 21.3983 35.7927C21.5227 35.9171 21.6888 36.0001 21.8546 36.0001H28.1169C28.4901 36.0001 28.7805 35.7096 28.7805 35.3365V32.0186H21.2325L21.1909 35.3365Z" fill="#091A7A"/>
<path d="M15.8821 23.2675C15.6333 22.4795 15.1358 21.8158 14.4721 21.3183L8.45832 17.1294C8.16787 16.922 7.83634 16.839 7.4629 16.922C7.13108 17.005 6.84092 17.1708 6.63351 17.4612C6.30169 17.9588 6.34306 18.5811 6.71654 19.0373L6.92396 19.2447C8.00218 20.4473 9.16335 21.6088 10.4076 22.6039L11.4858 23.475C11.8177 23.7655 11.859 24.2214 11.6102 24.5532C11.3198 24.885 10.8639 24.9264 10.532 24.6776L9.45379 23.8065C8.12651 22.7283 6.88254 21.5255 5.7627 20.2399L5.55528 20.0324C4.72589 19.0786 4.60147 17.627 5.34785 16.5488C5.43088 16.4658 5.47225 16.383 5.55528 16.3L2.77659 12.4015C2.44477 11.9453 1.86419 11.6965 1.28357 11.7795C0.868723 11.8625 0.495512 12.1113 0.246748 12.4431C-0.00204459 12.8163 -0.0437024 13.2312 0.0393249 13.6457L3.02537 24.6775C3.31582 25.7143 3.97917 26.6267 4.89158 27.166L10.2001 30.4422H18.1214L15.8821 23.2675Z" fill="#1939B7"/>
<path d="M10.7393 32.0186V35.3365C10.7393 35.7097 11.0297 36.0001 11.4029 36.0001H17.6652C17.831 36.0001 17.997 35.9171 18.1214 35.7927C18.2458 35.6683 18.3289 35.5022 18.3289 35.3365V32.0186L10.7393 32.0186Z" fill="#1939B7"/>
<path d="M21.1493 17.4199C21.1493 17.6273 21.315 17.7931 21.5225 17.7931H24.7159C25.3379 17.7931 25.8358 17.2955 25.8358 16.6732V12.4432H26.0846C26.5408 12.4432 26.9557 12.5676 27.3288 12.775C27.5776 12.8994 27.8264 12.9408 28.0752 12.9824C29.112 13.0238 30.0658 12.1531 30.1075 11.1162C30.1488 10.038 29.2364 9.12562 28.1582 9.12562C27.8264 9.12562 27.5363 9.20864 27.2871 9.33304C26.914 9.54046 26.5408 9.66486 26.1259 9.66486H25.8355L25.8357 5.39286C25.8357 4.77088 25.3382 4.27302 24.7159 4.27302H21.1906V4.02422C21.1906 3.56801 21.315 3.15314 21.5224 2.77996C21.6468 2.53117 21.6881 2.28238 21.7298 2.0336C21.7712 0.996777 20.9004 0.0429748 19.8636 0.00135381C18.7854 -0.0400146 17.873 0.872432 17.873 1.95058C17.873 2.2824 17.956 2.57255 18.0804 2.82166C18.2878 3.19485 18.3708 3.56802 18.3708 3.9829V4.27335L14.7625 4.27306C14.1405 4.27306 13.6426 4.77065 13.6426 5.3929V9.62321H13.3939C12.9376 9.62321 12.5228 9.49881 12.1496 9.29139C11.9008 9.16699 11.652 9.12562 11.4032 9.08397C10.325 9.0426 9.4126 9.91335 9.37098 10.9502C9.32961 12.0284 10.2421 12.9408 11.3202 12.9408C11.652 12.9408 11.9422 12.8578 12.1913 12.7334C12.5645 12.5259 12.9377 12.4429 13.3525 12.4429H13.643V16.6732C13.643 17.2952 14.1406 17.7931 14.7628 17.7931H17.9563C18.1637 17.7931 18.3295 17.6273 18.3295 17.4199C18.3295 17.0467 18.2051 16.6735 18.039 16.3417C17.8733 16.0512 17.7903 15.7611 17.7903 15.4293C17.7903 14.351 18.7027 13.48 19.7809 13.48C20.8591 13.5214 21.7301 14.4338 21.6471 15.5123C21.6471 15.8441 21.5227 16.1343 21.3983 16.3834C21.2322 16.7149 21.1492 17.0467 21.1492 17.4199L21.1493 17.4199Z" fill="#091A7A"/>
</svg>
