<svg width="38" height="39" viewBox="0 0 38 39" fill="none" xmlns="http://www.w3.org/2000/svg">
<path d="M22.3116 29.3645C22.3116 28.0146 21.2135 26.917 19.8636 26.917H17.9463C16.5964 26.917 15.4988 28.0149 15.4988 29.3645V36.5527C15.4988 37.9025 16.5966 39.0007 17.9463 39.0007H19.8636C21.2135 39.0007 22.3116 37.9025 22.3116 36.5527V29.3645ZM20.2216 37.0902H17.5886V36.2363H20.2216V37.0902ZM20.2216 34.6207H17.5886V33.7668H20.2216V34.6207ZM20.2216 32.1509H17.5886V31.2969H20.2216V32.1509ZM20.2216 29.6816H17.5886V28.8277H20.2216V29.6816Z" fill="#1939B7"/>
<path d="M28.1764 8.2254H23.6394C22.5937 9.72007 20.8625 10.7012 18.9044 10.7012C16.9463 10.7012 15.2152 9.72007 14.1697 8.2254H9.63276C8.83007 10.1957 3.77036 23.2468 7.82897 29.5322C9.1899 31.6395 11.4828 32.7779 14.6436 32.9244L14.6439 29.363C14.6439 27.5422 16.1251 26.0613 17.9456 26.0613H19.863C21.6841 26.0613 23.165 27.5425 23.165 29.363V32.9247C26.3261 32.7779 28.6187 31.6395 29.9799 29.5319C34.04 23.2427 28.9797 10.1954 28.1764 8.2251L28.1764 8.2254ZM14.3033 14.959H23.5052V15.813H14.3033V14.959ZM25.0737 20.6052H12.7348V19.7513H25.0737V20.6052Z" fill="#091A7A"/>
<path d="M8.20298 7.37214H13.6787C13.3284 6.62751 13.1271 5.79977 13.1271 4.92411C13.1271 4.04844 13.3287 3.22066 13.6787 2.47607H8.20298C6.8528 2.47607 5.75464 3.57424 5.75464 4.92441C5.75434 6.27398 6.8528 7.37222 8.20298 7.37222V7.37214Z" fill="#091A7A"/>
<path d="M0.0844727 4.15283V5.69485H4.99549C4.93562 5.44734 4.90077 5.18969 4.90077 4.92403C4.90077 4.65805 4.93592 4.4004 4.99549 4.15291L0.0844727 4.15283Z" fill="#091A7A"/>
<path d="M18.9046 9.84795C21.6198 9.84795 23.8287 7.63904 23.8287 4.92383C23.8287 2.2083 21.6198 0 18.9046 0C16.1897 0 13.9805 2.20891 13.9805 4.92383C13.9805 7.63851 16.1897 9.84795 18.9046 9.84795Z" fill="#1939B7"/>
<path d="M37.7253 5.69485V4.15283H32.814C32.8738 4.40094 32.9087 4.65799 32.9087 4.92396C32.9087 5.18965 32.8735 5.44699 32.814 5.69478L37.7253 5.69485Z" fill="#091A7A"/>
<path d="M24.1311 7.37221H29.6066C30.9565 7.37221 32.0541 6.27405 32.0541 4.92471C32.0541 3.57454 30.9562 2.47637 29.6066 2.47637L24.1311 2.47607C24.4814 3.22071 24.6827 4.04844 24.6827 4.92411C24.6827 5.79977 24.4817 6.62756 24.1311 7.37215V7.37221Z" fill="#091A7A"/>
</svg>
