<svg width="28" height="28" viewBox="0 0 28 28" fill="none" xmlns="http://www.w3.org/2000/svg">
<g clip-path="url(#clip0_122_12770)">
<path d="M26.4724 14H14.5947V6.87257C14.594 6.24269 14.3431 5.63886 13.8971 5.19377C13.4514 4.7489 12.8469 4.49937 12.217 4.5H5.99989C5.42155 4.50045 4.86349 4.71205 4.43023 5.09509C3.99697 5.47812 3.71863 6.00623 3.64743 6.57989L2.82732 13.1296C2.79808 13.3582 2.70276 13.5729 2.55299 13.7479C2.40343 13.9229 2.20589 14.0503 1.98491 14.1146C1.51035 14.2707 1.09673 14.5718 0.802563 14.9755C0.508146 15.3791 0.348101 15.865 0.344975 16.3646H1.53246C1.84741 16.3653 2.1492 16.4905 2.37218 16.7131C2.59515 16.9356 2.72106 17.2372 2.7224 17.5522C2.72173 17.8691 2.59561 18.1729 2.37173 18.3972C2.14784 18.6218 1.84427 18.7484 1.52733 18.7497H0.339844V21.1271C0.341183 21.4416 0.466632 21.743 0.689175 21.9653C0.911495 22.1878 1.21284 22.3133 1.52735 22.3146H3.36237C3.36461 22.3425 3.36885 22.37 3.37487 22.3972C3.37242 22.3698 3.37242 22.3421 3.37487 22.3146H3.96728V22.2771C3.93602 22.1291 3.92018 21.9785 3.91995 21.8271C3.91728 21.7939 3.91728 21.7604 3.91995 21.7271C3.91303 21.5675 3.92152 21.4077 3.94495 21.2497C4.10054 20.3041 4.70364 19.4923 5.5637 19.07C6.42375 18.6476 7.4349 18.6671 8.27821 19.122C9.12152 19.5769 9.69296 20.4115 9.81238 21.3621C9.83515 21.4833 9.8452 21.6063 9.84229 21.7296C9.84854 21.8021 9.84854 21.8749 9.84229 21.9472C9.83828 22.0588 9.82488 22.1702 9.80234 22.2796V22.3171H10.3974C10.401 22.3546 10.401 22.3923 10.3974 22.4296C10.4001 22.4242 10.4001 22.4177 10.3974 22.4121C10.3974 22.3822 10.3974 22.3472 10.4148 22.3171H18.2171V22.2796C18.1859 22.1318 18.17 21.9809 18.1698 21.8296C18.1671 21.7963 18.1671 21.763 18.1698 21.7296C18.1649 21.5691 18.174 21.4086 18.1973 21.2496C18.3564 20.257 19.0075 19.4126 19.927 19.0059C20.8464 18.5992 21.9091 18.6858 22.7506 19.2358C23.5921 19.7858 24.0982 20.7244 24.0948 21.7296C24.0997 21.8021 24.0997 21.8746 24.0948 21.9472C24.0885 22.0588 24.0743 22.17 24.0522 22.2796V22.3171H26.4872C26.8017 22.3159 27.103 22.1903 27.3254 21.9679C27.5479 21.7454 27.6734 21.4443 27.6747 21.1295V15.1873C27.6734 14.8701 27.5457 14.5665 27.3202 14.3437C27.0946 14.1209 26.7894 13.9971 26.4722 13.9997L26.4724 14ZM5.0924 12.8125L6 6.87252H12.2171V12.8125H5.0924ZM12.2175 15.7826H11.0301C10.7171 15.7623 10.4736 15.5025 10.4736 15.1889C10.4736 14.875 10.7171 14.6154 11.0301 14.5951H12.2175C12.3818 14.5844 12.543 14.6422 12.6631 14.7547C12.7832 14.8672 12.8513 15.0243 12.8513 15.1888C12.8513 15.3533 12.7832 15.5105 12.6631 15.623C12.543 15.7355 12.3818 15.7931 12.2175 15.7826V15.7826ZM8.65503 21.7203C8.6557 21.2474 8.46843 20.7935 8.1345 20.4587C7.80056 20.1241 7.34724 19.9358 6.87421 19.9353C6.40144 19.9349 5.94764 20.1224 5.61307 20.4565C5.27847 20.7907 5.0903 21.244 5.09008 21.717C5.08985 22.1898 5.27758 22.6434 5.61195 22.9779C5.94633 23.3123 6.39967 23.5003 6.87264 23.5003C7.34473 23.4996 7.79744 23.3119 8.13132 22.9784C8.46548 22.6447 8.65364 22.1924 8.65499 21.7203L8.65503 21.7203ZM6.28006 21.7203C6.28006 21.4793 6.42537 21.2623 6.64814 21.1703C6.87068 21.0784 7.12671 21.1297 7.29683 21.3005C7.4667 21.471 7.51714 21.7275 7.42406 21.9496C7.3312 22.1719 7.11357 22.3163 6.87272 22.3152C6.54504 22.3138 6.2801 22.0478 6.2801 21.7203L6.28006 21.7203ZM22.9075 21.7203H22.9077C22.9084 21.2471 22.7209 20.7933 22.3867 20.4585C22.0526 20.1237 21.599 19.9355 21.126 19.9353C20.6531 19.9351 20.1992 20.1228 19.8647 20.4574C19.5303 20.7918 19.3424 21.2456 19.3426 21.7185C19.3428 22.1915 19.5312 22.6451 19.866 22.9792C20.2008 23.3134 20.6546 23.5009 21.1276 23.5002C21.5993 23.4989 22.0513 23.3109 22.3848 22.9774C22.7185 22.644 22.9064 22.192 22.9077 21.7203L22.9075 21.7203ZM20.5325 21.7203H20.5327C20.5327 21.4795 20.6776 21.2625 20.8999 21.1706C21.1222 21.0784 21.3783 21.1293 21.5484 21.2996C21.7185 21.4697 21.7694 21.7257 21.6774 21.948C21.5852 22.1704 21.3683 22.3152 21.1276 22.3152C20.7991 22.3152 20.5328 22.0489 20.5328 21.7204L20.5325 21.7203Z" fill="#091A7A"/>
</g>
<defs>
<clipPath id="clip0_122_12770">
<rect width="26.6667" height="26.6667" fill="white" transform="translate(0.666748 0.666992)"/>
</clipPath>
</defs>
</svg>
