<svg width="48" height="48" viewBox="0 0 48 48" fill="none" xmlns="http://www.w3.org/2000/svg">
<path fill-rule="evenodd" clip-rule="evenodd" d="M33.7931 10.1445C35.3931 10.4204 36.7172 11.8548 36.9379 12.1307L39.3656 16.71L43.0622 17.2066C43.5035 17.2617 44.0002 17.6479 44.0002 18.0894V19.0273C44.0002 19.4686 43.614 19.7997 43.2278 19.7997H41.076C41.4622 20.1858 43.2278 21.3997 43.283 25.6477C43.3381 29.2339 43.3381 32.7648 43.3381 36.3511C43.3381 36.958 42.7863 37.5098 42.1794 37.5098H36.8828C36.2207 37.5098 35.669 36.958 35.669 36.3511V34.9167C27.8895 35.4134 20.1101 35.4134 12.2758 34.9167V36.3511C12.2758 36.958 11.7792 37.5098 11.1171 37.5098H5.8205C5.15844 37.5098 4.66181 36.958 4.66181 36.3511V25.6477C4.71695 21.3995 6.5377 20.1856 6.92387 19.7997H4.7721C4.3308 19.7997 3.99976 19.4687 3.99976 19.0273V18.0894C3.99976 17.6481 4.49641 17.2617 4.88256 17.2066L8.57918 16.71L11.062 12.1307C11.2827 11.8548 12.5517 10.4204 14.1517 10.1445C20.2757 9.26172 27.7245 9.26172 33.7931 10.1445ZM29.4897 29.5651C29.8207 29.5651 30.0966 29.2892 30.0966 28.9582C30.0966 28.572 29.8207 28.2961 29.4897 28.2961H18.5103C18.1241 28.2961 17.8482 28.572 17.8482 28.9582C17.8482 29.2892 18.1241 29.5651 18.5103 29.5651H29.4897ZM29.4897 27.1374C29.8207 27.1374 30.0966 26.8064 30.0966 26.4754C30.0966 26.0892 29.8207 25.8133 29.4897 25.8133H18.5103C18.1241 25.8133 17.8482 26.0892 17.8482 26.4754C17.8482 26.8064 18.1241 27.1374 18.5103 27.1374H29.4897ZM37.3794 17.7032C36.6622 16.2688 36.0002 14.8893 35.2828 13.5101C34.7861 12.7377 34.1794 12.517 33.6277 12.3514C27.2277 11.579 20.7728 11.579 14.3728 12.3514C13.7659 12.517 13.2141 12.7375 12.7177 13.5101C12.0005 14.8893 11.2833 16.2688 10.5659 17.7032H37.3794ZM7.58628 25.7032H11.7242L13.3794 29.7308H7.58622L7.58628 25.7032ZM40.3589 25.7032H36.2761L34.5658 29.7308H40.3589L40.3589 25.7032Z" fill="#091A7A"/>
<path d="M39.3656 16.71L43.0622 17.2066C43.5035 17.2617 44.0002 17.6479 44.0002 18.0894V19.0274C44.0002 19.4687 43.614 19.7997 43.2278 19.7997H41.076L39.3656 16.71Z" fill="#1969B7"/>
<path d="M6.92387 19.7997H4.7721C4.3308 19.7997 3.99976 19.4687 3.99976 19.0274V18.0894C3.99976 17.6481 4.49641 17.2618 4.88256 17.2066L8.57918 16.71L6.92387 19.7997Z" fill="#1969B7"/>
</svg>
