<svg width="32" height="32" viewBox="0 0 32 32" fill="none" xmlns="http://www.w3.org/2000/svg">
<g clip-path="url(#clip0_122_12777)">
<path fill-rule="evenodd" clip-rule="evenodd" d="M7.20705 4H24.8319C25.8732 4 26.6832 4.85277 26.6832 5.89925V13.7288H27.4932V10.9767L28.843 10.938C29.6143 10.938 30 11.6745 30 12.4496V14.3489C30 15.0466 29.6915 15.5117 29.0358 15.5117C28.2258 15.5504 27.493 15.5504 26.6832 15.5504V24.4264C26.6832 25.5892 25.7961 26.3256 24.6777 26.3256V28.2249C24.6777 28.6512 24.3306 29 23.9064 29H21.0524C20.6281 29 20.2811 28.6512 20.2811 28.2249V26.3256H11.7576V28.2249C11.7576 28.6512 11.3719 29 10.9476 29H8.13229C7.66952 29 7.32233 28.6512 7.32233 28.2249V26.3256C6.2425 26.3256 5.31681 25.5892 5.31681 24.4264V15.5504C4.54554 15.5504 3.77408 15.5504 3.00276 15.5117C2.3085 15.5117 2 15.0466 2 14.3489V12.4496C2 11.6745 2.38573 10.938 3.19554 10.938L4.50684 10.9767V13.7288H5.31681V5.89925C5.31681 4.85277 6.16534 4 7.20661 4L7.20705 4ZM8.36408 8.18601C7.74703 8.18601 7.20705 8.68981 7.20705 9.34883V14.5815C7.20705 15.2403 7.74703 15.7443 8.36408 15.7443H23.6364C24.292 15.7443 24.7934 15.2405 24.7934 14.5815V9.34883C24.7934 8.68999 24.2921 8.18601 23.6364 8.18601H8.36408ZM24.6394 20.0075C22.5568 20.4726 20.5128 20.744 18.4689 20.7827C17.9676 21.9455 17.659 23.1857 17.5047 24.4648C20.2815 24.7362 22.5571 24.5812 23.868 23.4958C24.2922 22.4105 24.5235 21.2478 24.6392 20.0073L24.6394 20.0075ZM7.40015 20.0075C9.44422 20.4726 11.4882 20.744 13.5324 20.7827C14.0724 21.9455 14.381 23.1857 14.5352 24.4648C11.7584 24.7362 9.44413 24.5812 8.17192 23.4958C7.74766 22.4105 7.47767 21.2478 7.40064 20.0073L7.40015 20.0075Z" fill="#091A7A"/>
</g>
<defs>
<clipPath id="clip0_122_12777">
<rect width="32" height="32" fill="white"/>
</clipPath>
</defs>
</svg>
