<svg width="28" height="28" viewBox="0 0 28 28" fill="none" xmlns="http://www.w3.org/2000/svg">
<path d="M14.6617 5.59192C16.6866 5.78948 18.5427 6.58752 20.0569 7.80611L20.7038 7.14486L20.218 6.64828C20.0123 6.43799 20.0123 6.09338 20.218 5.8833L20.9244 5.16125C21.1301 4.95096 21.4673 4.95096 21.6728 5.16125L23.7174 7.25121C23.9231 7.4615 23.9231 7.80611 23.7174 8.01619L23.011 8.73824C22.8053 8.94853 22.4681 8.94853 22.2626 8.73824L21.7768 8.24166L21.1771 8.85469C22.9268 10.7471 24 13.2981 24 16.1078C24 19.0237 22.8426 21.6635 20.974 23.5761C19.1004 25.4838 16.5178 26.6668 13.6655 26.6668C10.8132 26.6668 8.23046 25.4838 6.35932 23.5737C4.4907 21.6609 3.33331 19.0213 3.33331 16.1053C3.33331 13.2984 4.40634 10.7445 6.15618 8.8522L5.55647 8.23917L5.07067 8.73576C4.86495 8.94604 4.52783 8.94604 4.3223 8.73576L3.61593 8.01371C3.41021 7.80342 3.41021 7.45881 3.61593 7.24873L5.66051 5.15876C5.86623 4.94847 6.20336 4.94847 6.40888 5.15876L7.11525 5.88081C7.32097 6.09109 7.32097 6.4357 7.11525 6.64579L6.62946 7.14237L7.27635 7.80362C8.79057 6.58255 10.6444 5.78717 12.6716 5.58943V4.09973H11.767C11.3828 4.09973 11.0706 3.77794 11.0706 3.38795V2.04528C11.0706 1.65262 11.3854 1.3335 11.767 1.3335H15.5712C15.9554 1.3335 16.2676 1.65529 16.2676 2.04528V3.38795C16.2676 3.78061 15.9528 4.09973 15.5712 4.09973H14.6666L14.6668 5.59187L14.6617 5.59192ZM20.5827 16.1053H13.6655V9.03455C9.84634 9.03455 6.74828 12.2012 6.74828 16.1053C6.74828 20.0094 9.8462 23.1761 13.6655 23.1761C17.4848 23.1761 20.5827 20.0094 20.5827 16.1053ZM19.6929 9.9443C18.1514 8.36607 16.02 7.39064 13.6657 7.39064C11.3114 7.39064 9.17993 8.36593 7.63849 9.9443C6.09453 11.52 5.14029 13.6987 5.14029 16.1053C5.14029 18.5119 6.0944 20.6907 7.63849 22.2663C9.18002 23.8447 11.3114 24.82 13.6657 24.82C16.02 24.82 18.1515 23.8447 19.6929 22.2663C21.2369 20.6906 22.1911 18.5119 22.1911 16.1053C22.1911 13.6987 21.2369 11.5199 19.6929 9.9443Z" fill="#091A7A"/>
<path fill-rule="evenodd" clip-rule="evenodd" d="M6.74828 16.1054C6.74828 12.2013 9.84633 9.0346 13.6655 9.0346V16.1054H20.5827C20.5827 20.0094 17.4848 23.1761 13.6655 23.1761C9.8462 23.1761 6.74828 20.0094 6.74828 16.1054Z" fill="#1939B7"/>
</svg>
