<svg width="13" height="13" viewBox="0 0 13 13" fill="currentColor"
  xmlns="http://www.w3.org/2000/svg">
  <path d="M8.40324 6.99375L12.6976 2.70905C13.0892 2.31741 13.0892 1.68244 12.6976 1.2908C12.306 0.899161 11.6711 0.899161 11.2795 1.2908L6.99509 5.58549L2.71069 1.2908C2.31908 0.899161 1.68415 0.899161 1.29254 1.2908C0.900933 1.68244 0.900933 2.31741 1.29254 2.70905L5.58693 6.99375L1.29254 11.2784C1.10348 11.466 0.997131 11.7213 0.997131 11.9876C0.997131 12.2539 1.10348 12.5092 1.29254 12.6967C1.48006 12.8858 1.73533 12.9921 2.00162 12.9921C2.26791 12.9921 2.52317 12.8858 2.71069 12.6967L6.99509 8.40201L11.2795 12.6967C11.467 12.8858 11.7223 12.9921 11.9886 12.9921C12.2548 12.9921 12.5101 12.8858 12.6976 12.6967C12.8867 12.5092 12.993 12.2539 12.993 11.9876C12.993 11.7213 12.8867 11.466 12.6976 11.2784L8.40324 6.99375Z" fill="#637381"/>
</svg>
