<svg width="20" height="20" viewBox="0 0 20 20" fill="currentColor" xmlns="http://www.w3.org/2000/svg">
<path d="M14.1667 2.9168C14.1667 2.68668 13.9801 2.50013 13.75 2.50013H11.6667C9.48276 2.39134 7.62106 4.06687 7.5 6.25013V8.50013H5.41667C5.18655 8.50013 5 8.68668 5 8.9168V11.0835C5 11.3136 5.18655 11.5001 5.41667 11.5001H7.5V17.0835C7.5 17.3136 7.68655 17.5001 7.91667 17.5001H10.4167C10.6468 17.5001 10.8333 17.3136 10.8333 17.0835V11.5001H13.0167C13.2073 11.5029 13.3755 11.3759 13.425 11.1918L14.025 9.02513C14.0586 8.90035 14.0324 8.76705 13.9541 8.66427C13.8758 8.56149 13.7542 8.50085 13.625 8.50013H10.8333V6.25013C10.8763 5.82271 11.2371 5.49798 11.6667 5.50013H13.75C13.9801 5.50013 14.1667 5.31358 14.1667 5.08346V2.9168Z" fill="currentColor"/>
</svg>
