<svg width="20" height="20" viewBox="0 0 20 20" fill="none" xmlns="http://www.w3.org/2000/svg">
<path d="M8.14822 9.99984C8.14822 11.0224 8.97704 11.8516 9.99996 11.8516C11.0229 11.8516 11.8517 11.0228 11.8517 9.99984C11.8517 8.97727 11.0229 8.1481 9.99996 8.1481C8.97739 8.1481 8.14822 8.97692 8.14822 9.99984Z" fill="#637381"/>
<path fill-rule="evenodd" clip-rule="evenodd" d="M9.99996 5.44532C11.4833 5.44532 11.659 5.45088 12.2448 5.47762C12.877 5.50643 13.4638 5.63317 13.9152 6.08456C14.3666 6.53595 14.4934 7.12275 14.5222 7.75505C14.5489 8.34081 14.5545 8.5165 14.5545 9.99984C14.5545 11.4832 14.5489 11.6589 14.5222 12.2446C14.4934 12.8769 14.3666 13.4637 13.9152 13.9151C13.4638 14.3665 12.877 14.4932 12.2448 14.5221C11.659 14.5488 11.4833 14.5544 9.99996 14.5544C8.51663 14.5544 8.34093 14.5488 7.75517 14.5221C7.12288 14.4932 6.53607 14.3665 6.08468 13.9151C5.63329 13.4637 5.50656 12.8769 5.47774 12.2446C5.451 11.6589 5.44545 11.4832 5.44545 9.99984C5.44545 8.5165 5.451 8.34081 5.47774 7.75505C5.50656 7.12275 5.63329 6.53595 6.08468 6.08456C6.53607 5.63317 7.12288 5.50643 7.75517 5.47762C8.34093 5.45088 8.51663 5.44532 9.99996 5.44532ZM7.14718 9.99984C7.14718 8.42449 8.42427 7.14706 9.99996 7.14706C11.5757 7.14706 12.8527 8.42449 12.8527 9.99984C12.8527 11.5752 11.5753 12.8526 9.99996 12.8526C8.42461 12.8526 7.14718 11.5752 7.14718 9.99984ZM12.9656 7.70088C13.3338 7.70088 13.6323 7.4024 13.6323 7.03421C13.6323 6.66602 13.3338 6.36755 12.9656 6.36755C12.5974 6.36755 12.2989 6.66602 12.2989 7.03421C12.2989 7.4024 12.5974 7.70088 12.9656 7.70088Z" fill="#637381"/>
<path fill-rule="evenodd" clip-rule="evenodd" d="M6.5642 1.7165C7.45308 1.67623 7.73676 1.6665 9.99996 1.6665C12.2632 1.6665 12.5468 1.67623 13.4357 1.7165C14.7906 1.77831 15.9798 2.11025 16.9347 3.06512C17.8899 4.02032 18.2215 5.20991 18.2833 6.56407C18.3236 7.45296 18.3333 7.73664 18.3333 9.99984C18.3333 12.263 18.3236 12.5467 18.2833 13.4356C18.2215 14.7905 17.8895 15.9797 16.9347 16.9346C15.9795 17.8898 14.7895 18.2214 13.4357 18.2832C12.5468 18.3235 12.2632 18.3332 9.99996 18.3332C7.73676 18.3332 7.45308 18.3235 6.5642 18.2832C5.20933 18.2214 4.0201 17.8894 3.06524 16.9346C2.11003 15.9794 1.77843 14.7898 1.71663 13.4356C1.67635 12.5467 1.66663 12.263 1.66663 9.99984C1.66663 7.73664 1.67635 7.45296 1.71663 6.56407C1.77843 5.20921 2.11038 4.01998 3.06524 3.06512C4.02045 2.10991 5.21003 1.77831 6.5642 1.7165ZM9.99996 4.44428C8.49128 4.44428 8.30204 4.45053 7.70933 4.47762C6.80656 4.51893 6.0135 4.74012 5.3767 5.37657C4.74024 6.01303 4.51906 6.80609 4.47774 7.70921C4.45065 8.30192 4.4444 8.49116 4.4444 9.99984C4.4444 11.5085 4.45065 11.6978 4.47774 12.2905C4.51906 13.1932 4.74024 13.9863 5.3767 14.6231C6.01315 15.2596 6.80621 15.4807 7.70933 15.5221C8.30204 15.5491 8.49128 15.5554 9.99996 15.5554C11.5086 15.5554 11.6979 15.5491 12.2906 15.5221C13.1934 15.4807 13.9864 15.2596 14.6232 14.6231C15.2597 13.9866 15.4809 13.1936 15.5222 12.2905C15.5493 11.6978 15.5555 11.5085 15.5555 9.99984C15.5555 8.49116 15.5493 8.30192 15.5222 7.70921C15.4809 6.80643 15.2597 6.01338 14.6232 5.37657C13.9868 4.74012 13.1937 4.51893 12.2906 4.47762C11.6979 4.45053 11.5086 4.44428 9.99996 4.44428Z" fill="#637381"/>
</svg>
