<svg width="27" height="22" viewBox="0 0 27 22" fill="none" xmlns="http://www.w3.org/2000/svg">
<path d="M3.98281 14.9542C3.60406 14.9542 3.29724 14.6474 3.29724 14.2686C3.29724 13.8899 3.60406 13.5831 3.98281 13.5831H9.78327C9.11738 12.9581 8.62044 12.4036 8.33103 12.0606C8.23328 11.9449 8.16021 11.8173 8.09918 11.6857H3.98304C3.60429 11.6857 3.29746 11.3789 3.29746 11.0001C3.29746 10.6214 3.60429 10.3145 3.98304 10.3145H8.09938C8.16021 10.1829 8.23328 10.0555 8.33084 9.93999C8.62026 9.59701 9.11724 9.04227 9.78308 8.41732H3.98311C3.60436 8.41732 3.29754 8.1105 3.29754 7.73175C3.29754 7.35299 3.60436 7.04617 3.98311 7.04617H11.4231C12.9526 5.91624 14.913 4.87025 17.1202 4.6256L17.1204 1.45369C17.1204 1.15088 16.8748 0.905273 16.572 0.905273H1.2151C0.912289 0.905273 0.666687 1.15089 0.666687 1.45369V20.5465C0.666687 20.8493 0.912299 21.0949 1.2151 21.0949H16.572C16.8748 21.0949 17.1204 20.8493 17.1204 20.5465V17.3744C14.9137 17.1297 12.9536 16.0838 11.4238 14.954L3.98281 14.9542ZM6.09977 3.77786H11.6862C12.065 3.77786 12.3718 4.08469 12.3718 4.46344C12.3718 4.84219 12.065 5.14902 11.6862 5.14902H6.09977C5.72102 5.14902 5.4142 4.84219 5.4142 4.46344C5.4142 4.08469 5.72121 3.77786 6.09977 3.77786ZM5.27169 18.2229H3.98281C3.60406 18.2229 3.29724 17.9161 3.29724 17.5374C3.29724 17.1586 3.60406 16.8518 3.98281 16.8518H5.27169C5.65044 16.8518 5.95727 17.1586 5.95727 17.5374C5.95727 17.9159 5.65044 18.2229 5.27169 18.2229ZM14.4893 17.5374C14.4893 17.9161 14.1824 18.2229 13.8037 18.2229H7.42489C7.04614 18.2229 6.73932 17.9161 6.73932 17.5374C6.73932 17.1586 7.04614 16.8518 7.42489 16.8518H13.8032C14.1819 16.8518 14.4893 17.1586 14.4893 17.5374ZM26.786 10.8246C26.0321 9.93149 22.422 5.94218 18.0827 5.94218C13.7427 5.94218 10.1329 9.93149 9.37927 10.8246C9.29281 10.9269 9.293 11.0742 9.37946 11.1766C10.1335 12.0697 13.7433 16.0588 18.0828 16.0588C22.4224 16.0588 26.0321 12.0699 26.7862 11.1766C26.8725 11.0742 26.8723 10.9271 26.786 10.8246ZM18.0822 15.3572C15.68 15.3572 13.7258 13.4028 13.7258 11.0006C13.7258 8.59839 15.68 6.64401 18.0822 6.64401C20.4844 6.64401 22.4388 8.59839 22.4388 11.0006C22.4388 13.4028 20.4844 15.3572 18.0822 15.3572ZM18.0822 7.74093C16.285 7.74093 14.8228 9.20331 14.8228 11.0006C14.8228 12.7982 16.285 14.2604 18.0822 14.2604C19.8797 14.2604 21.3419 12.7982 21.3419 11.0006C21.3419 9.20331 19.8797 7.74093 18.0822 7.74093ZM19.9723 11.9211C20.2401 12.1887 20.2401 12.6228 19.9723 12.8906C19.8384 13.0245 19.663 13.0914 19.4876 13.0914C19.3122 13.0914 19.1368 13.0245 19.0029 12.8906L18.0822 11.9701L17.1617 12.8906C17.0278 13.0245 16.8524 13.0914 16.677 13.0914C16.5016 13.0914 16.3261 13.0245 16.1922 12.8906C15.9244 12.6228 15.9244 12.1888 16.1922 11.9211L17.1127 11.0006L16.1922 10.0802C15.9244 9.81256 15.9244 9.37833 16.1922 9.11071C16.4601 8.84291 16.8939 8.84291 17.1617 9.11071L18.0822 10.0312L19.0029 9.11071C19.2707 8.84291 19.7045 8.84291 19.9723 9.11071C20.2401 9.37832 20.2401 9.81255 19.9723 10.0802L19.0518 11.0006L19.9723 11.9211Z" fill="#091A7A"/>
<path d="M26.786 10.8246C26.0321 9.93149 22.422 5.94218 18.0827 5.94218C13.7427 5.94218 10.1329 9.93149 9.37927 10.8246C9.29281 10.9269 9.293 11.0742 9.37946 11.1766C10.1335 12.0697 13.7433 16.0588 18.0828 16.0588C22.4224 16.0588 26.0321 12.0699 26.7862 11.1766C26.8725 11.0742 26.8723 10.9271 26.786 10.8246ZM18.0822 15.3572C15.68 15.3572 13.7258 13.4028 13.7258 11.0006C13.7258 8.59839 15.68 6.64401 18.0822 6.64401C20.4844 6.64401 22.4388 8.59839 22.4388 11.0006C22.4388 13.4028 20.4844 15.3572 18.0822 15.3572ZM18.0822 7.74093C16.285 7.74093 14.8228 9.20331 14.8228 11.0006C14.8228 12.7982 16.285 14.2604 18.0822 14.2604C19.8797 14.2604 21.3419 12.7982 21.3419 11.0006C21.3419 9.20331 19.8797 7.74093 18.0822 7.74093ZM19.9723 11.9211C20.2401 12.1887 20.2401 12.6228 19.9723 12.8906C19.8384 13.0245 19.663 13.0914 19.4876 13.0914C19.3122 13.0914 19.1367 13.0245 19.0029 12.8906L18.0822 11.9701L17.1617 12.8906C17.0278 13.0245 16.8524 13.0914 16.677 13.0914C16.5016 13.0914 16.3261 13.0245 16.1922 12.8906C15.9244 12.6228 15.9244 12.1888 16.1922 11.9211L17.1127 11.0006L16.1922 10.0802C15.9244 9.81256 15.9244 9.37833 16.1922 9.11071C16.4601 8.84291 16.8939 8.84291 17.1617 9.11071L18.0822 10.0312L19.0029 9.11071C19.2707 8.84291 19.7045 8.84291 19.9723 9.11071C20.2401 9.37832 20.2401 9.81255 19.9723 10.0802L19.0518 11.0006L19.9723 11.9211Z" fill="#1939B7"/>
</svg>
