<svg width="20" height="20" viewBox="0 0 20 20" fill="none" xmlns="http://www.w3.org/2000/svg">
<path d="M12.625 7C11.335 6.99557 10.0963 7.50433 9.18181 8.41412C8.26733 9.32392 7.7522 10.56 7.75 11.85V16.75C7.75 16.9489 7.82902 17.1397 7.96967 17.2803C8.11032 17.421 8.30109 17.5 8.5 17.5H10.25C10.6642 17.5 11 17.1642 11 16.75V11.85C10.9997 11.3906 11.1948 10.9527 11.5367 10.6458C11.8786 10.3389 12.3349 10.1919 12.7917 10.2417C13.63 10.3473 14.2566 11.0634 14.25 11.9083V16.75C14.25 17.1642 14.5858 17.5 15 17.5H16.75C17.1642 17.5 17.5 17.1642 17.5 16.75V11.85C17.4978 10.56 16.9827 9.32392 16.0682 8.41412C15.1537 7.50433 13.915 6.99557 12.625 7Z" fill="#637381"/>
<path d="M2.5 8.5C2.5 8.08579 2.83579 7.75 3.25 7.75H5.5C5.91421 7.75 6.25 8.08579 6.25 8.5V16.75C6.25 17.1642 5.91421 17.5 5.5 17.5H3.25C2.83579 17.5 2.5 17.1642 2.5 16.75V8.5Z" fill="#637381"/>
<path d="M6.25 4.375C6.25 5.41053 5.41053 6.25 4.375 6.25C3.33947 6.25 2.5 5.41053 2.5 4.375C2.5 3.33947 3.33947 2.5 4.375 2.5C5.41053 2.5 6.25 3.33947 6.25 4.375Z" fill="#637381"/>
</svg>
