<svg width="20" height="24" viewBox="0 0 20 24" fill="currentColor" xmlns="http://www.w3.org/2000/svg">
<path d="M0.670786 5.02955C0.645279 4.86571 0.74097 4.70726 0.89797 4.65317C3.86403 3.34723 6.82214 2.03547 9.77145 0.717505C9.90658 0.649504 10.0658 0.649504 10.2008 0.717505C13.1684 2.04304 16.1363 3.35719 19.1039 4.65997C19.2528 4.69951 19.3497 4.84278 19.3311 4.99555C19.3311 7.01328 19.3311 9.0332 19.3196 11.0508C19.3155 11.7121 19.2617 12.3722 19.1584 13.0255C18.8263 15.1055 17.9932 17.0737 16.7305 18.7613C15.1179 20.931 13.0557 22.4815 10.4438 23.2659C10.1616 23.3556 9.85835 23.3556 9.57619 23.2659C7.16131 22.5481 5.03867 21.0804 3.51657 19.0762C1.67041 16.7571 0.672179 13.8789 0.686617 10.9166V8.30035C0.686617 7.20995 0.686617 6.11943 0.670774 5.02903L0.670786 5.02955ZM16.9212 12.0009H17.2277C17.2277 11.9079 17.2414 11.8285 17.2414 11.7515V6.32625H17.2415C17.2673 6.19989 17.1968 6.07369 17.0757 6.02926C14.7802 5.0227 12.4862 4.0093 10.1939 2.98898C10.1372 2.96399 10.0759 2.94818 9.99637 2.91877V3.13415V11.8285C9.99637 11.8919 9.99637 11.9555 10.0122 12.0213C9.94869 12.0213 9.885 12.0031 9.8191 12.0031L2.95765 12.003H2.79178C3.11434 15.535 5.75561 19.9378 10.0118 21.2074L10.0119 12.0009L16.9212 12.0009Z" fill="#091A7A"/>
</svg>
