<svg width="32" height="32" viewBox="0 0 32 32" fill="currentColor"
  xmlns="http://www.w3.org/2000/svg">
  <g clip-path="url(#clip0_122_12759)">
    <path d="M16 3.2002C8.93081 3.2002 3.19995 8.93105 3.19995 16.0002C3.19995 23.0693 8.93081 28.8002 16 28.8002C23.0691 28.8002 28.8 23.0693 28.8 16.0002C28.8 8.93105 23.0691 3.2002 16 3.2002ZM16 4.79014C22.1777 4.79014 27.2 9.82208 27.2 16.0004C27.2 22.1788 22.1778 27.2004 16 27.2004C9.82207 27.2004 4.79995 22.1785 4.79995 16.0004C4.79995 9.82271 9.82207 4.79014 16 4.79014ZM16 6.08008C11.9281 6.08008 8.44109 8.51871 6.91024 12.0201L11.6401 12.7701C12.6325 11.4317 14.2118 10.56 16.0002 10.56C17.7886 10.56 19.3776 11.4315 20.3703 12.7701L25.0904 12.0201C23.5612 8.51894 20.0721 6.08008 16.0001 6.08008H16ZM16 11.8401C13.6948 11.8401 11.8399 13.695 11.8399 16.0001C11.8399 18.3053 13.6948 20.1602 16 20.1602C18.3051 20.1602 20.16 18.3053 20.16 16.0001C20.16 13.695 18.3051 11.8401 16 11.8401ZM6.45995 13.2401C6.26285 13.9253 6.14477 14.6421 6.09991 15.38L10.6499 16.97C10.4722 15.9559 10.6104 14.8256 10.96 13.9501L6.45995 13.2401ZM25.5302 13.2401L21.0504 13.9501C21.4115 14.9986 21.5267 15.947 21.3504 16.9501L25.9004 15.3602C25.8546 14.6289 25.7256 13.9196 25.5303 13.2401H25.5302ZM16 13.7602C17.2294 13.7602 18.2399 14.7707 18.2399 16.0001C18.2399 17.2295 17.2294 18.2401 16 18.2401C14.7705 18.2401 13.76 17.2295 13.76 16.0001C13.76 14.7707 14.7705 13.7602 16 13.7602ZM16 15.0401C15.4622 15.0401 15.0399 15.4624 15.0399 16.0001C15.0399 16.5379 15.4622 16.9602 16 16.9602C16.5377 16.9602 16.96 16.5379 16.96 16.0001C16.96 15.4624 16.5377 15.0401 16 15.0401ZM25.8897 16.7199L20.8397 18.4901C20.3542 19.4271 19.5944 20.1985 18.6796 20.7199L18.1595 25.6699C22.3736 24.7362 25.5727 21.1371 25.8892 16.7202L25.8897 16.7199ZM6.10967 16.7398C6.42708 21.0327 9.46304 24.5575 13.5097 25.5998L12.9697 20.4998C12.2217 19.9938 11.6007 19.3141 11.1798 18.5099L6.10967 16.7398ZM14.3394 21.1697L14.8293 25.8398C15.5352 25.928 16.1905 25.9153 16.8495 25.8699L17.3294 21.2699C16.2959 21.4318 15.2012 21.4336 14.3394 21.1699L14.3394 21.1697Z" fill="#091A7A"/>
    <path fill-rule="evenodd" clip-rule="evenodd" d="M16 11.8401C13.6948 11.8401 11.8399 13.695 11.8399 16.0001C11.8399 18.3053 13.6948 20.1602 16 20.1602C18.3051 20.1602 20.16 18.3053 20.16 16.0001C20.16 13.695 18.3051 11.8401 16 11.8401ZM6.45995 13.2401C6.26285 13.9253 6.14477 14.6421 6.09991 15.38L10.6499 16.97C10.4722 15.9559 10.6104 14.8256 10.96 13.9501L6.45995 13.2401ZM25.5302 13.2401L21.0504 13.9501C21.4115 14.9986 21.5267 15.947 21.3504 16.9501L25.9004 15.3602C25.8546 14.6289 25.7256 13.9196 25.5302 13.2401ZM16 13.7602C17.2294 13.7602 18.2399 14.7707 18.2399 16.0001C18.2399 17.2295 17.2294 18.2401 16 18.2401C14.7705 18.2401 13.76 17.2295 13.76 16.0001C13.76 14.7707 14.7705 13.7602 16 13.7602ZM16 15.0401C15.4622 15.0401 15.0399 15.4624 15.0399 16.0001C15.0399 16.5379 15.4622 16.9602 16 16.9602C16.5377 16.9602 16.96 16.5379 16.96 16.0001C16.96 15.4624 16.5377 15.0401 16 15.0401ZM14.3394 21.1697L14.8293 25.8398C15.5352 25.928 16.1905 25.9153 16.8495 25.8699L17.3294 21.2699C16.2959 21.4318 15.2012 21.4333 14.3394 21.1697Z" fill="#1939B7"/>
  </g>
  <defs>
    <clipPath id="clip0_122_12759">
      <rect width="32" height="32" fill="white"/>
    </clipPath>
  </defs>
</svg>
