<svg width="35" height="38" viewBox="0 0 35 38" fill="currentColor" xmlns="http://www.w3.org/2000/svg">
<path d="M24.1076 24.8984V19.761C24.1076 16.0503 21.1002 13.043 17.3891 13.043C13.679 13.043 10.6707 16.0503 10.6707 19.761V27.0072C10.6707 28.0984 11.5554 28.9836 12.647 28.9836H13.1077V33.3136C13.1077 35.6766 15.0243 37.5945 17.39 37.5945C19.7553 37.5945 21.6715 35.6756 21.6715 33.3136V28.9836H22.1326C23.2242 28.9836 24.1085 28.0984 24.1085 27.0072L24.108 24.8984H24.1076Z" fill="#091A7A"/>
<path d="M21.8691 7.9698C21.8691 10.4443 19.8635 12.4499 17.389 12.4499C14.915 12.4499 12.9094 10.4443 12.9094 7.9698C12.9094 5.49576 14.915 3.48975 17.389 3.48975C19.8635 3.48975 21.8691 5.49576 21.8691 7.9698Z" fill="#091A7A"/>
<path d="M28.2972 8.95821C30.7693 8.95821 32.7744 6.95314 32.7744 4.4791C32.7744 2.00507 30.7693 0 28.2972 0C25.8217 0 23.8171 2.00507 23.8171 4.4791C23.8171 6.95314 25.8208 8.95821 28.2972 8.95821Z" fill="#091A7A"/>
<path d="M11.039 4.54454C11.039 7.01857 9.03346 9.02411 6.55943 9.02411C4.08586 9.02411 2.08032 7.01857 2.08032 4.54454C2.08032 2.07097 4.08586 0.0654297 6.55943 0.0654297C9.03346 0.0654297 11.039 2.07097 11.039 4.54454Z" fill="#1939B7"/>
<path d="M28.0053 9.4616C25.2673 9.4616 22.9146 11.1037 21.8674 13.4546C23.9142 14.7114 25.284 16.9615 25.284 19.5387V27.24C25.284 28.2108 24.6192 29.0218 23.7229 29.2603V29.7321C23.7229 32.0968 25.6405 34.0144 28.0043 34.0144C30.3682 34.0144 32.2843 32.0964 32.2843 29.7321V25.4038H32.7454C33.8371 25.4038 34.7233 24.5186 34.7233 23.4265L34.7237 21.3191V16.1817C34.7251 12.4693 31.7159 9.46143 28.0052 9.46143L28.0053 9.4616Z" fill="#091A7A"/>
<path d="M9.57142 27.2407V19.5386C9.57142 16.9613 10.9414 14.7114 12.9866 13.4544C11.9399 11.1035 9.58801 9.46143 6.84968 9.46143C3.13904 9.46143 0.130371 12.4693 0.130371 16.1812V20.7904L0.130834 21.3201V23.4274C0.130834 24.52 1.01554 25.4048 2.10722 25.4048H2.56832V29.733C2.56832 32.0977 4.48497 34.0154 6.85069 34.0154C9.21545 34.0154 11.1331 32.0973 11.1331 29.733V29.2612C10.2354 29.0223 9.57148 28.2117 9.57148 27.2409L9.57142 27.2407Z" fill="#1939B7"/>
</svg>
