<svg width="20" height="20" viewBox="0 0 20 20" fill="none" xmlns="http://www.w3.org/2000/svg">
<path d="M6.73339 16.6667C9.22289 16.75 11.6403 15.823 13.4358 14.0965C15.2313 12.37 16.2524 9.99085 16.2667 7.5C16.8314 6.80117 17.2508 5.99652 17.5001 5.13333C17.5381 4.99402 17.4908 4.84537 17.3793 4.75364C17.2677 4.6619 17.1128 4.64416 16.9834 4.70833C16.3776 4.99994 15.6533 4.87251 15.1834 4.39166C14.5924 3.74444 13.7644 3.36413 12.8883 3.33744C12.0123 3.31075 11.1627 3.63995 10.5334 4.25C9.66586 5.09016 9.30216 6.32356 9.57505 7.5C6.78339 7.66666 4.86672 6.34166 3.33339 4.525C3.23926 4.4184 3.09101 4.37756 2.95557 4.4209C2.82014 4.46424 2.72314 4.58356 2.70839 4.725C2.11015 8.04347 3.63911 11.3839 6.54172 13.1C5.59142 14.1899 4.25689 14.8705 2.81672 15C2.65854 15.0262 2.53453 15.1501 2.50817 15.3083C2.48181 15.4665 2.55893 15.6239 2.70005 15.7C3.95299 16.3261 5.33275 16.6568 6.73339 16.6667Z" fill="#637381"/>
</svg>
