<svg width="168" height="168" viewBox="0 0 168 168" fill="currentColor" xmlns="http://www.w3.org/2000/svg">
<path d="M168 128.487H0V128.571H168V128.487Z" fill="#EBEBEB"/>
<path d="M79.6321 113.501H14.7538C14.2456 113.5 13.7584 113.298 13.3994 112.938C13.0403 112.578 12.8386 112.091 12.8386 111.583V20.3822C12.843 19.8769 13.0467 19.3937 13.4053 19.0376C13.7639 18.6816 14.2485 18.4813 14.7538 18.4805H79.6321C80.1409 18.4805 80.6289 18.6826 80.9887 19.0424C81.3485 19.4022 81.5506 19.8902 81.5506 20.399V111.583C81.5506 112.092 81.3485 112.58 80.9887 112.939C80.6289 113.299 80.1409 113.501 79.6321 113.501ZM14.7538 18.5477C14.2679 18.5486 13.8021 18.7422 13.4588 19.0862C13.1154 19.4301 12.9226 19.8963 12.9226 20.3822V111.583C12.9226 112.069 13.1154 112.535 13.4588 112.879C13.8021 113.223 14.2679 113.416 14.7538 113.417H79.6321C80.1183 113.416 80.5845 113.223 80.9283 112.879C81.2722 112.535 81.4657 112.069 81.4666 111.583V20.3822C81.4657 19.8959 81.2722 19.4298 80.9283 19.086C80.5845 18.7421 80.1183 18.5486 79.6321 18.5477H14.7538Z" fill="#EBEBEB"/>
<path d="M152.312 113.501H87.4306C86.9221 113.5 86.4346 113.298 86.075 112.938C85.7154 112.579 85.513 112.091 85.5121 111.583V20.3822C85.5174 19.8766 85.7218 19.3934 86.0809 19.0374C86.44 18.6814 86.925 18.4813 87.4306 18.4805H152.312C152.817 18.4822 153.301 18.6828 153.659 19.0388C154.017 19.3948 154.22 19.8775 154.224 20.3822V111.583C154.224 112.09 154.023 112.577 153.665 112.937C153.306 113.297 152.82 113.499 152.312 113.501ZM87.4306 18.5477C86.9444 18.5486 86.4782 18.7421 86.1344 19.086C85.7905 19.4298 85.597 19.8959 85.5961 20.3822V111.583C85.597 112.069 85.7905 112.535 86.1344 112.879C86.4782 113.223 86.9444 113.416 87.4306 113.417H152.312C152.799 113.416 153.265 113.223 153.608 112.879C153.952 112.535 154.146 112.069 154.147 111.583V20.3822C154.146 19.8959 153.952 19.4298 153.608 19.086C153.265 18.7421 152.799 18.5486 152.312 18.5477H87.4306Z" fill="#EBEBEB"/>
<path d="M67.3476 131.686H58.6116V131.77H67.3476V131.686Z" fill="#EBEBEB"/>
<path d="M35.8041 130.775H17.6265V130.859H35.8041V130.775Z" fill="#EBEBEB"/>
<path d="M58.2758 134.807H49.4323V134.891H58.2758V134.807Z" fill="#EBEBEB"/>
<path d="M99.812 134.242H86.7651V134.326H99.812V134.242Z" fill="#EBEBEB"/>
<path d="M106.394 134.242H102.802V134.326H106.394V134.242Z" fill="#EBEBEB"/>
<path d="M151.17 132.824H132.838V132.908H151.17V132.824Z" fill="#EBEBEB"/>
<path d="M75.7006 30.6602H25.845V83.271H75.7006V30.6602Z" fill="#E6E6E6"/>
<path d="M81.0465 28.957H22.6195C22.4876 28.957 22.3611 29.0094 22.2678 29.1027C22.1746 29.1959 22.1222 29.3224 22.1222 29.4543C22.1222 29.5195 22.1351 29.584 22.1601 29.6441C22.1851 29.7042 22.2218 29.7588 22.268 29.8048C22.3143 29.8507 22.3691 29.887 22.4294 29.9116C22.4897 29.9362 22.5543 29.9487 22.6195 29.9482H81.0465C81.1775 29.9482 81.3031 29.8962 81.3958 29.8036C81.4884 29.7109 81.5404 29.5853 81.5404 29.4543C81.5409 29.3892 81.5284 29.3246 81.5038 29.2643C81.4792 29.204 81.4429 29.1491 81.397 29.1029C81.3511 29.0567 81.2965 29.02 81.2363 28.9949C81.1762 28.9699 81.1117 28.957 81.0465 28.957Z" fill="#E6E6E6"/>
<path d="M77.8209 30.6602H26.8363V83.271H77.8209V30.6602Z" fill="#F0F0F0"/>
<path d="M75.7006 83.2715H25.845V85.2371H75.7006V83.2715Z" fill="#E6E6E6"/>
<path d="M81.3422 83.2715H30.3575V85.2371H81.3422V83.2715Z" fill="#F0F0F0"/>
<path d="M74.8575 80.3112V33.624H29.7966V80.3112H74.8575Z" fill="#FAFAFA"/>
<path d="M40.0243 80.3107L57.4089 33.6201H65.6141L48.2328 80.3107H40.0243Z" fill="white"/>
<path d="M49.9935 80.3107L67.3782 33.6201H70.5769L53.1923 80.3107H49.9935Z" fill="white"/>
<path d="M74.8575 80.3073V33.6201H74.4812V80.3073H74.8575Z" fill="#E6E6E6"/>
<g opacity="0.6">
<path d="M28.5734 75.5937H22.3137L25.6872 28.0732H31.9468L28.5734 75.5937Z" fill="#F0F0F0"/>
<path d="M31.0129 75.5937H26.1342L29.5076 28.0732H34.3863L31.0129 75.5937Z" fill="#E6E6E6"/>
<path d="M34.8332 75.5937H28.5735L31.9469 28.0732H38.2066L34.8332 75.5937Z" fill="#F0F0F0"/>
<path d="M37.2725 75.5937H32.3938L35.7706 28.0732H40.646L37.2725 75.5937Z" fill="#E6E6E6"/>
<path d="M41.0928 75.5937H34.8331L38.2066 28.0732H44.4696L41.0928 75.5937Z" fill="#F0F0F0"/>
</g>
<g opacity="0.6">
<path d="M76.7861 75.5937H80.3242L78.4191 28.0732H74.881L76.7861 75.5937Z" fill="#F0F0F0"/>
<path d="M75.4085 75.5937H78.1637L76.2586 28.0732H73.5L75.4085 75.5937Z" fill="#E6E6E6"/>
<path d="M73.2478 75.5937H76.7859L74.8807 28.0732H71.3427L73.2478 75.5937Z" fill="#F0F0F0"/>
<path d="M71.8704 75.5937H74.6256L72.7205 28.0732H69.9619L71.8704 75.5937Z" fill="#E6E6E6"/>
<path d="M69.7099 75.5937H73.248L71.3429 28.0732H67.8048L69.7099 75.5937Z" fill="#F0F0F0"/>
</g>
<path d="M143.358 28.0732H108.881V73.9104H143.358V28.0732Z" fill="#E6E6E6"/>
<path d="M145.975 28.0732H109.956V73.9104H145.975V28.0732Z" fill="#F5F5F5"/>
<path d="M114.623 29.9449L111.417 69.6182L141.304 72.0333L144.51 32.3601L114.623 29.9449Z" fill="white"/>
<path d="M143.771 32.2994L140.565 71.9727L141.302 72.0322L144.508 32.359L143.771 32.2994Z" fill="#E6E6E6"/>
<path d="M147.877 91.0332H128.621V128.487H147.877V91.0332Z" fill="#F5F5F5"/>
<path d="M147.877 91.0332H146.288V128.487H147.877V91.0332Z" fill="#F0F0F0"/>
<path d="M85.7673 107.947H130.106V92.0981H85.7673V107.947Z" fill="#E6E6E6"/>
<path d="M87.9009 93.8389L147.874 93.8389V91.0299L87.9009 91.0299V93.8389Z" fill="#F0F0F0"/>
<path d="M87.9044 91.0332H68.6482V128.487H87.9044V91.0332Z" fill="#F5F5F5"/>
<path d="M69.3434 102.964H69.4308C70.6596 102.964 71.8382 103.452 72.7071 104.321C73.576 105.19 74.0642 106.368 74.0642 107.597V128.486H64.71V107.597C64.71 106.368 65.1981 105.19 66.0671 104.321C66.936 103.452 68.1145 102.964 69.3434 102.964Z" fill="#E6E6E6"/>
<path d="M87.9043 91.0332H86.3151V128.487H87.9043V91.0332Z" fill="#F0F0F0"/>
<path d="M109.576 91.0328H105.423L106.431 82.9453H110.588L109.576 91.0328Z" fill="#F0F0F0"/>
<path d="M110.497 91.0328H106.341L107.352 82.9453H111.505L110.497 91.0328Z" fill="#F5F5F5"/>
<path d="M111.001 86.9874H106.848L107.352 82.9453H111.505L111.001 86.9874Z" fill="#F0F0F0"/>
<path d="M95.7364 86.0162H125.123C125.181 86.0161 125.238 86.0039 125.29 85.9801C125.343 85.9564 125.389 85.9218 125.428 85.8786C125.466 85.8354 125.494 85.7846 125.511 85.7295C125.528 85.6744 125.533 85.6164 125.526 85.5592L123.262 67.4421C123.249 67.3438 123.202 67.2534 123.127 67.1878C123.053 67.1222 122.957 67.086 122.858 67.0859H93.4718C93.4152 67.0871 93.3595 67.0999 93.3082 67.1235C93.2568 67.1472 93.2109 67.1813 93.1734 67.2236C93.1358 67.2659 93.1074 67.3155 93.09 67.3693C93.0725 67.4231 93.0664 67.4799 93.0719 67.5362L95.3299 85.6802C95.3473 85.7751 95.3976 85.8608 95.4719 85.9222C95.5463 85.9837 95.6399 86.017 95.7364 86.0162Z" fill="#F0F0F0"/>
<path d="M96.1733 86.0162H125.56C125.617 86.0161 125.674 86.0039 125.727 85.9801C125.779 85.9564 125.826 85.9218 125.864 85.8786C125.903 85.8354 125.931 85.7846 125.948 85.7295C125.965 85.6744 125.97 85.6164 125.963 85.5592L123.698 67.4421C123.686 67.3438 123.638 67.2534 123.564 67.1878C123.49 67.1222 123.394 67.086 123.295 67.0859H93.9087C93.8509 67.086 93.7938 67.0983 93.7412 67.122C93.6885 67.1457 93.6414 67.1802 93.6031 67.2234C93.5647 67.2665 93.5358 67.3173 93.5184 67.3723C93.501 67.4274 93.4955 67.4855 93.5021 67.5429L95.76 85.6802C95.7776 85.7762 95.8289 85.8628 95.9046 85.9244C95.9804 85.986 96.0757 86.0186 96.1733 86.0162Z" fill="#F5F5F5"/>
<path d="M125.015 85.0085L122.895 68.0506C122.891 68.0233 122.877 67.9984 122.856 67.9804C122.835 67.9625 122.809 67.9528 122.781 67.9531H94.5571C94.5409 67.953 94.5248 67.9564 94.51 67.9629C94.4952 67.9695 94.4819 67.9791 94.4711 67.9912C94.4603 68.0033 94.4522 68.0175 94.4473 68.033C94.4424 68.0484 94.4409 68.0647 94.4428 68.0808L96.563 85.0387C96.567 85.066 96.5808 85.0909 96.6018 85.1089C96.6228 85.1268 96.6496 85.1365 96.6772 85.1362H124.901C124.917 85.1363 124.933 85.1329 124.948 85.1264C124.963 85.1198 124.976 85.1102 124.987 85.0981C124.998 85.086 125.006 85.0718 125.011 85.0563C125.016 85.0409 125.017 85.0246 125.015 85.0085Z" fill="#E6E6E6"/>
<path d="M122.005 85.1493L114.546 67.9629H108.004L115.463 85.1493H122.005Z" fill="#EBEBEB"/>
<path d="M114.203 85.1493L106.744 67.9629H104.388L111.848 85.1493H114.203Z" fill="#EBEBEB"/>
<path d="M114.267 91.0332H107.5V90.9492C107.5 90.771 107.571 90.6001 107.697 90.474C107.823 90.348 107.994 90.2772 108.172 90.2772H113.595C113.773 90.2772 113.944 90.348 114.07 90.474C114.196 90.6001 114.267 90.771 114.267 90.9492V91.0332Z" fill="#F5F5F5"/>
<path d="M108.293 91.0332H103.703V90.9492C103.703 90.771 103.774 90.6001 103.9 90.474C104.026 90.348 104.197 90.2772 104.375 90.2772H107.617C107.796 90.2772 107.967 90.348 108.093 90.474C108.219 90.6001 108.289 90.771 108.289 90.9492V91.0332H108.293Z" fill="#F0F0F0"/>
<path d="M121.753 91.0325H100.833L100.269 89.3525H119.031L121.753 91.0325Z" fill="#F5F5F5"/>
<path d="M103.135 91.0325H99.6777L99.2107 89.3525H102.668L103.135 91.0325Z" fill="#F0F0F0"/>
<path d="M96.479 91.0293H90.5251C90.5251 90.6568 90.6731 90.2996 90.9365 90.0362C91.1998 89.7728 91.5571 89.6248 91.9296 89.6248H95.0745C95.447 89.6248 95.8042 89.7728 96.0676 90.0362C96.331 90.2996 96.479 90.6568 96.479 91.0293Z" fill="#F0F0F0"/>
<path d="M29.9779 128.487H35.8142V101.362H29.9779L29.9779 128.487Z" fill="#E0E0E0"/>
<path d="M55.8903 128.487H32.2964L29.3799 96.4326H52.9738L55.8903 128.487Z" fill="#E6E6E6"/>
<path d="M57.1132 128.487H33.5193L30.5995 96.4326H54.1968L57.1132 128.487Z" fill="#F0F0F0"/>
<path d="M36.7449 124.939L34.4702 99.9805H50.9712L53.2425 124.939H36.7449Z" fill="white"/>
<path d="M84.0001 143.66C119.98 143.66 149.147 141.957 149.147 139.856C149.147 137.756 119.98 136.053 84.0001 136.053C48.0204 136.053 18.853 137.756 18.853 139.856C18.853 141.957 48.0204 143.66 84.0001 143.66Z" fill="#F5F5F5"/>
<path d="M33.2885 59.4705L32.9526 59.4814L33.0988 63.9579L33.4346 63.947L33.2885 59.4705Z" fill="#091A7A"/>
<path d="M33.1625 55.6072L32.8267 55.6182L32.8962 57.7473L33.232 57.7363L33.1625 55.6072Z" fill="#091A7A"/>
<path d="M37.6991 87.9886H101.828C102.171 87.9902 102.51 87.9224 102.826 87.7893C103.142 87.6562 103.428 87.4605 103.666 87.2141C103.904 86.9677 104.09 86.6755 104.213 86.3553C104.335 86.0351 104.391 85.6935 104.378 85.351L102.95 41.5937C102.922 40.8888 102.623 40.2217 102.117 39.7308C101.61 39.2398 100.934 38.9624 100.229 38.9561H36.0998C35.7568 38.9545 35.4171 39.0223 35.1011 39.1553C34.785 39.2884 34.4991 39.484 34.2606 39.7304C34.022 39.9768 33.8358 40.2688 33.713 40.589C33.5902 40.9092 33.5335 41.251 33.5462 41.5937L34.9742 85.3442C35.0018 86.0507 35.3002 86.7194 35.8075 87.2117C36.3149 87.704 36.9922 87.9822 37.6991 87.9886Z" fill="#091A7A"/>
<path d="M37.9043 87.9886H102.033C102.376 87.9902 102.716 87.9224 103.032 87.7893C103.348 87.6563 103.634 87.4607 103.872 87.2143C104.111 86.9679 104.297 86.6758 104.42 86.3556C104.543 86.0354 104.6 85.6937 104.587 85.351L103.152 41.5937C103.123 40.8885 102.824 40.2214 102.317 39.7305C101.809 39.2396 101.133 38.9624 100.427 38.9561H36.3049C35.9621 38.9545 35.6226 39.0223 35.3067 39.1554C34.9908 39.2885 34.7051 39.4841 34.4668 39.7305C34.2285 39.977 34.0426 40.2691 33.9202 40.5893C33.7978 40.9095 33.7415 41.2511 33.7547 41.5937L35.1827 85.3442C35.2094 86.0504 35.5071 86.719 36.0139 87.2114C36.5207 87.7039 37.1977 87.9822 37.9043 87.9886Z" fill="#091A7A"/>
<path opacity="0.5" d="M37.9043 87.9886H102.033C102.376 87.9902 102.716 87.9224 103.032 87.7893C103.348 87.6563 103.634 87.4607 103.872 87.2143C104.111 86.9679 104.297 86.6758 104.42 86.3556C104.543 86.0354 104.6 85.6937 104.587 85.351L103.152 41.5937C103.123 40.8885 102.824 40.2214 102.317 39.7305C101.809 39.2396 101.133 38.9624 100.427 38.9561H36.3049C35.9621 38.9545 35.6226 39.0223 35.3067 39.1554C34.9908 39.2885 34.7051 39.4841 34.4668 39.7305C34.2285 39.977 34.0426 40.2691 33.9202 40.5893C33.7978 40.9095 33.7415 41.2511 33.7547 41.5937L35.1827 85.3442C35.2094 86.0504 35.5071 86.719 36.0139 87.2114C36.5207 87.7039 37.1977 87.9822 37.9043 87.9886Z" fill="white"/>
<path opacity="0.5" d="M100.272 40.2734H36.1401H35.925C34.282 40.4078 34.5172 42.901 36.1737 42.901H100.414C102.067 42.901 102.141 40.4078 100.487 40.2734C100.417 40.2768 100.343 40.2734 100.272 40.2734Z" fill="#091A7A"/>
<path d="M37.7595 41.5941C37.7622 41.6724 37.7491 41.7504 37.7209 41.8235C37.6927 41.8966 37.65 41.9632 37.5954 42.0194C37.5408 42.0756 37.4754 42.1201 37.4031 42.1504C37.3309 42.1807 37.2532 42.196 37.1749 42.1955C37.0134 42.1948 36.8583 42.1319 36.742 42.0199C36.6256 41.9079 36.5568 41.7554 36.5499 41.5941C36.5467 41.5155 36.5595 41.4371 36.5875 41.3636C36.6155 41.2901 36.6581 41.2231 36.7128 41.1665C36.7674 41.11 36.833 41.0651 36.9055 41.0347C36.978 41.0042 37.0559 40.9888 37.1346 40.9893C37.2969 40.9892 37.4529 41.0523 37.5695 41.1651C37.6861 41.278 37.7543 41.4318 37.7595 41.5941Z" fill="#FAFAFA"/>
<path d="M39.816 41.5941C39.8192 41.6725 39.8064 41.7507 39.7784 41.824C39.7504 41.8974 39.7077 41.9642 39.653 42.0205C39.5983 42.0767 39.5327 42.1213 39.4602 42.1514C39.3877 42.1815 39.3099 42.1965 39.2314 42.1955C39.0701 42.194 38.9156 42.1308 38.7994 42.019C38.6832 41.9072 38.6141 41.7552 38.6064 41.5941C38.6032 41.5155 38.616 41.4371 38.644 41.3636C38.672 41.2901 38.7146 41.2231 38.7693 41.1665C38.824 41.11 38.8895 41.0651 38.962 41.0347C39.0345 41.0042 39.1124 40.9888 39.1911 40.9893C39.3534 40.9892 39.5094 41.0523 39.626 41.1651C39.7426 41.278 39.8108 41.4318 39.816 41.5941Z" fill="#FAFAFA"/>
<path d="M41.7091 42.0259C41.9393 41.7917 41.9297 41.4088 41.6875 41.1707C41.4453 40.9327 41.0623 40.9295 40.8321 41.1638C40.6018 41.398 40.6115 41.7809 40.8536 42.0189C41.0958 42.257 41.4788 42.2601 41.7091 42.0259Z" fill="#FAFAFA"/>
<path d="M39.1473 83.6201H100.508C100.632 83.6211 100.755 83.5969 100.869 83.5489C100.984 83.5009 101.088 83.4302 101.174 83.341C101.26 83.2517 101.328 83.1459 101.372 83.0299C101.416 82.9138 101.437 82.79 101.432 82.6659L100.256 46.6769C100.242 46.4225 100.133 46.1826 99.9494 46.0055C99.7661 45.8285 99.5226 45.7274 99.2678 45.7227H37.9108C37.7866 45.7217 37.6635 45.7459 37.549 45.7939C37.4344 45.8419 37.3308 45.9126 37.2444 46.0018C37.158 46.0911 37.0906 46.1969 37.0463 46.313C37.0021 46.429 36.9818 46.5528 36.9868 46.6769L38.1595 82.6558C38.1705 82.9121 38.2789 83.1544 38.4624 83.3336C38.6459 83.5128 38.8909 83.6152 39.1473 83.6201Z" fill="white"/>
<g opacity="0.3">
<path d="M84.1781 79.1681H83.0559V78.8489H83.8489L83.822 78.056L84.1412 78.0459L84.1781 79.1681Z" fill="#091A7A"/>
<path d="M81.2717 79.168H79.4875V78.832H81.2717V79.168ZM77.7033 79.168H75.936V78.832H77.7201L77.7033 79.168ZM74.135 79.168H72.3509V78.832H74.135V79.168ZM70.5667 79.168H68.7825V78.832H70.56L70.5667 79.168ZM67.0017 79.168H65.2142V78.832H67.0017V79.168ZM63.4334 79.168H61.6493V78.832H63.4334V79.168ZM59.8651 79.168H58.0809V78.832H59.8651V79.168Z" fill="#091A7A"/>
<path d="M56.2968 79.1681H55.1846L55.151 78.056L55.4668 78.0459L55.4937 78.8489H56.2968V79.1681Z" fill="#091A7A"/>
<path d="M55.1039 76.2718L55.0468 74.4876H55.3828L55.4399 76.2718H55.1039ZM54.9897 72.7035L54.9292 70.9193H55.2484L55.3055 72.7035H54.9897ZM54.8721 69.1351L54.8149 67.351H55.1308L55.1913 69.1351H54.8721ZM54.7545 65.5702L54.6973 63.786H55.0165L55.0737 65.5702H54.7545ZM54.6402 62.0019L54.5797 60.2177H54.8989L54.9561 62.0019H54.6402ZM54.5226 58.4302L54.4655 56.6494H54.7813L54.8418 58.4335L54.5226 58.4302ZM54.405 54.8652L54.3479 53.0811H54.6671L54.7242 54.8652H54.405Z" fill="#091A7A"/>
<path d="M54.2774 51.2937L54.2405 50.1748H55.3594V50.494H54.5698L54.5933 51.2836L54.2774 51.2937Z" fill="#091A7A"/>
<path d="M80.3376 50.494H78.5535V50.1748H80.3376V50.494ZM76.7693 50.494H74.9852V50.1748H76.7693V50.494ZM73.201 50.494H71.4168V50.1748H73.201V50.494ZM69.6327 50.494H67.8485V50.1748H69.6327V50.494ZM66.0644 50.494H64.2802V50.1748H66.0644V50.494ZM62.496 50.494H60.7119V50.1748H62.496V50.494ZM58.9277 50.494H57.1436V50.1748H58.9277V50.494Z" fill="#091A7A"/>
<path d="M82.9483 51.2937L82.9214 50.494H82.1217V50.1748H83.2305L83.2675 51.2836L82.9483 51.2937Z" fill="#091A7A"/>
<path d="M83.7651 76.2718L83.708 74.4876H84.0238L84.0843 76.2718H83.7651ZM83.6643 72.7035L83.6072 70.9193H83.9264L83.9835 72.7035H83.6643ZM83.55 69.1385L83.4896 67.3543H83.8088L83.8659 69.1385H83.55ZM83.4324 65.5702L83.3753 63.786H83.6912L83.7516 65.5702H83.4324ZM83.3148 62.0019L83.2577 60.2177H83.5769L83.634 62.0019H83.3148ZM83.2006 58.4335L83.1401 56.6494H83.4761L83.5332 58.4335H83.2006ZM83.083 54.8652L83.0259 53.0811H83.3417L83.4022 54.8652H83.083Z" fill="#091A7A"/>
</g>
<path d="M75.5395 69.2161H63.8098C62.7219 69.2075 61.679 68.7804 60.8976 68.0234C60.1162 67.2664 59.6563 66.2376 59.6131 65.1505C59.5748 64.1738 59.9015 63.2178 60.5294 62.4688C61.1574 61.7197 62.0417 61.2312 63.0101 61.0984C63.2639 60.1276 63.8329 59.2686 64.6277 58.6562C65.4225 58.0439 66.3982 57.7127 67.4016 57.7149C68.2275 57.7161 69.0391 57.9301 69.7583 58.3362C70.4774 58.7422 71.0799 59.3267 71.5075 60.0333C71.8764 59.9189 72.2604 59.8611 72.6466 59.8619C73.6471 59.8712 74.6096 60.2465 75.3525 60.9169C76.0953 61.5873 76.567 62.5064 76.6786 63.5008C77.191 63.7455 77.6274 64.1248 77.941 64.5983C78.2547 65.0717 78.4338 65.6214 78.4594 66.1888C78.4748 66.5812 78.4106 66.9728 78.2707 67.3398C78.1307 67.7068 77.9179 68.0416 77.6451 68.3242C77.3723 68.6067 77.0451 68.8311 76.6832 68.9839C76.3213 69.1366 75.9323 69.2144 75.5395 69.2128V69.2161ZM67.4016 58.4977C66.5298 58.4925 65.6835 58.7917 65.0087 59.3437C64.334 59.8958 63.8731 60.6661 63.7056 61.5217L63.6485 61.8208L63.3461 61.8409C62.5228 61.8912 61.752 62.262 61.1987 62.8737C60.6454 63.4853 60.3536 64.2894 60.3859 65.1136C60.4205 65.998 60.7945 66.835 61.4303 67.4508C62.066 68.0665 62.9146 68.4136 63.7997 68.4198H75.5294C75.8168 68.4223 76.1016 68.3664 76.3667 68.2555C76.6318 68.1445 76.8715 67.9808 77.0714 67.7744C77.2712 67.5679 77.4271 67.323 77.5293 67.0544C77.6316 66.7859 77.6783 66.4994 77.6664 66.2123C77.645 65.7555 77.4909 65.3148 77.223 64.9442C76.955 64.5736 76.5849 64.2892 76.1578 64.1257L75.9159 64.0317V63.7729C75.8731 62.9319 75.511 62.1388 74.9034 61.5556C74.2959 60.9724 73.4887 60.643 72.6466 60.6347C72.2456 60.6338 71.8484 60.7114 71.4773 60.8632L71.1413 60.9976L70.9767 60.6817C70.6371 60.0264 70.1242 59.4767 69.4938 59.0928C68.8634 58.7089 68.1397 58.5054 67.4016 58.5045V58.4977Z" fill="#091A7A"/>
<path d="M72.1592 65.4132L68.9235 62.2783L65.8928 65.4132H67.6669L67.7744 68.6522H70.4927L70.3851 65.4132H72.1592Z" fill="#091A7A"/>
<path d="M123.312 52.6846C123.621 53.1315 123.87 53.5078 124.125 53.9244C124.381 54.3411 124.622 54.7442 124.858 55.1642C125.328 55.9975 125.765 56.8443 126.165 57.7313C126.576 58.616 126.94 59.5222 127.253 60.4462C127.588 61.3944 127.853 62.3657 128.046 63.3526L128.174 64.1187L128.191 64.2161L128.211 64.337C128.211 64.4546 128.238 64.5554 128.241 64.673C128.248 64.8051 128.248 64.9375 128.241 65.0695L128.224 65.2812L128.187 65.5164C128.159 65.6833 128.116 65.8474 128.06 66.007C127.998 66.1844 127.919 66.3555 127.825 66.5177C127.636 66.8466 127.384 67.1345 127.082 67.3644C126.638 67.7018 126.117 67.9235 125.567 68.0095C125.205 68.0688 124.837 68.0868 124.471 68.0633C124.172 68.0494 123.875 68.0146 123.581 67.9591C123.062 67.8592 122.549 67.7279 122.045 67.566C121.125 67.2577 120.227 66.8873 119.357 66.4572C118.499 66.0435 117.667 65.579 116.864 65.0662L117.832 62.9225C119.501 63.3738 121.192 63.7394 122.899 64.0178C123.276 64.0749 123.656 64.1074 124.038 64.1153C124.282 64.1362 124.527 64.1088 124.76 64.0347C124.78 64.0179 124.703 63.9943 124.481 64.1422C124.297 64.2767 124.157 64.4626 124.078 64.6764C124.057 64.7288 124.04 64.7827 124.028 64.8377L124.008 64.9452C124.009 64.9642 124.009 64.9833 124.008 65.0023C124.008 65.0191 124.008 65.0023 124.008 65.0023V64.9587V64.8881L123.856 64.3236C123.369 62.7465 122.737 61.2179 121.968 59.7574C121.588 58.998 121.172 58.2487 120.748 57.5062C120.537 57.1332 120.318 56.767 120.1 56.4007C119.882 56.0345 119.646 55.6514 119.451 55.3457L123.312 52.6846Z" fill="#FFB573"/>
<path d="M118.201 63.1039L116.743 61.6523L115.295 64.8813C115.295 64.8813 116.666 65.644 117.885 65.0896L118.201 63.1039Z" fill="#FFB573"/>
<path d="M114.589 60.4932L113.514 63.2215L115.292 64.8813L116.743 61.6524L114.589 60.4932Z" fill="#FFB573"/>
<path d="M119.509 53.7656L91.5342 48.8379L86.6065 76.8127L114.581 81.7403L119.509 53.7656Z" fill="#091A7A"/>
<path opacity="0.6" d="M119.509 53.7656L91.5342 48.8379L86.6065 76.8127L114.581 81.7403L119.509 53.7656Z" fill="white"/>
<path d="M117.906 54.8845L92.6547 50.4365L88.2067 75.6879L113.458 80.1359L117.906 54.8845Z" fill="white"/>
<path opacity="0.3" d="M104.54 63.3389C106.681 61.8388 107.201 58.8867 105.701 56.7451C104.201 54.6036 101.249 54.0836 99.1074 55.5837C96.9659 57.0838 96.4459 60.0359 97.946 62.1774C99.4461 64.3189 102.398 64.8389 104.54 63.3389Z" fill="#091A7A"/>
<path opacity="0.2" d="M107.742 66.3525L99.2779 72.2796L95.387 66.7221L88.9996 71.1943L88.2067 75.6933L113.457 80.1386L114.25 75.6429L107.742 66.3525Z" fill="#091A7A"/>
<path d="M109.129 42.5068C109.129 42.732 109.022 42.9168 108.874 42.9201C108.726 42.9235 108.605 42.742 108.602 42.5203C108.598 42.2985 108.713 42.1104 108.857 42.1104C109.002 42.1104 109.126 42.2851 109.129 42.5068Z" fill="#263238"/>
<path d="M109.042 42.9141C108.788 43.6027 108.443 44.2538 108.014 44.8494C108.169 44.9551 108.345 45.0257 108.53 45.0565C108.715 45.0872 108.905 45.0773 109.086 45.0275L109.042 42.9141Z" fill="#FF5652"/>
<path d="M109.919 41.2506C109.884 41.2575 109.848 41.2502 109.818 41.2304C109.687 41.1307 109.533 41.0648 109.37 41.0384C109.207 41.012 109.04 41.0261 108.884 41.0792C108.852 41.0926 108.815 41.0925 108.783 41.0789C108.75 41.0654 108.724 41.0395 108.711 41.007C108.698 40.9744 108.698 40.9379 108.711 40.9055C108.725 40.873 108.751 40.8473 108.783 40.8339C108.981 40.7681 109.192 40.7502 109.398 40.7817C109.604 40.8133 109.8 40.8934 109.969 41.0154C109.998 41.0351 110.017 41.0652 110.023 41.0992C110.03 41.1332 110.022 41.1683 110.003 41.1968C109.983 41.2248 109.953 41.2441 109.919 41.2506Z" fill="#263238"/>
<path d="M115.607 43.3604C115.466 45.4234 115.628 49.5864 117.203 50.7524C117.203 50.7524 116.817 52.4324 113.077 52.9061C108.968 53.4202 110.856 51.1119 110.856 51.1119C113.034 50.292 112.768 48.6356 112.18 47.1202L115.607 43.3604Z" fill="#FFB573"/>
<path d="M125.795 132.575H125.772C125.722 132.549 125.682 132.508 125.656 132.458C125.631 132.408 125.622 132.352 125.63 132.296C125.631 132.252 125.642 132.209 125.662 132.169C125.682 132.13 125.71 132.095 125.745 132.068C126.06 131.799 126.981 131.917 127.021 131.92C127.034 131.922 127.045 131.928 127.055 131.936C127.064 131.945 127.071 131.955 127.075 131.967C127.079 131.979 127.079 131.992 127.075 132.004C127.072 132.016 127.065 132.026 127.055 132.034C126.84 132.209 126.128 132.69 125.795 132.575ZM126.847 132.024C126.534 132.001 126.017 131.997 125.839 132.155C125.819 132.172 125.802 132.192 125.791 132.215C125.779 132.238 125.772 132.264 125.772 132.29C125.772 132.414 125.819 132.438 125.835 132.448C126 132.532 126.507 132.276 126.847 132.024Z" fill="#091A7A"/>
<path d="M126.548 131.94C126.212 131.829 125.876 131.638 125.825 131.443C125.812 131.395 125.815 131.345 125.835 131.299C125.854 131.254 125.889 131.217 125.933 131.194C125.974 131.166 126.021 131.147 126.07 131.138C126.119 131.129 126.17 131.131 126.218 131.144C126.625 131.228 127.048 131.913 127.068 131.94C127.075 131.95 127.079 131.962 127.079 131.974C127.079 131.986 127.075 131.997 127.068 132.007C127.063 132.018 127.055 132.027 127.045 132.033C127.035 132.038 127.023 132.041 127.011 132.041C126.853 132.029 126.697 131.995 126.548 131.94ZM126.239 131.285H126.191C126.16 131.277 126.127 131.275 126.095 131.281C126.063 131.287 126.033 131.3 126.007 131.318C125.936 131.365 125.946 131.402 125.95 131.419C126.003 131.597 126.527 131.846 126.88 131.91C126.726 131.648 126.504 131.432 126.239 131.285Z" fill="#091A7A"/>
<path d="M105.393 137.169C105.037 137.169 104.694 137.118 104.577 136.96C104.547 136.918 104.531 136.868 104.531 136.816C104.531 136.764 104.547 136.714 104.577 136.671C104.6 136.634 104.63 136.601 104.666 136.575C104.701 136.549 104.742 136.53 104.785 136.52C105.245 136.392 106.216 136.944 106.257 136.967C106.268 136.974 106.277 136.985 106.283 136.998C106.288 137.01 106.29 137.024 106.287 137.038C106.285 137.051 106.279 137.063 106.27 137.072C106.261 137.082 106.249 137.089 106.236 137.091C105.958 137.141 105.676 137.166 105.393 137.169ZM104.953 136.631C104.91 136.626 104.868 136.626 104.825 136.631C104.799 136.637 104.773 136.649 104.752 136.665C104.73 136.681 104.711 136.701 104.697 136.725C104.65 136.806 104.667 136.846 104.697 136.87C104.825 137.048 105.527 137.051 106.041 136.98C105.705 136.793 105.335 136.674 104.953 136.631Z" fill="#091A7A"/>
<path d="M106.23 137.088H106.203C105.867 136.94 105.195 136.339 105.255 136.026C105.255 135.952 105.319 135.861 105.501 135.841C105.566 135.835 105.631 135.842 105.694 135.861C105.756 135.881 105.814 135.913 105.863 135.955C106.216 136.244 106.294 136.99 106.294 137.024C106.295 137.035 106.293 137.046 106.288 137.056C106.283 137.066 106.276 137.075 106.267 137.081C106.256 137.088 106.242 137.09 106.23 137.088ZM105.558 135.962H105.504C105.386 135.962 105.38 136.023 105.376 136.036C105.346 136.224 105.796 136.708 106.136 136.9C106.106 136.585 105.979 136.286 105.773 136.046C105.711 135.995 105.634 135.967 105.554 135.966L105.558 135.962Z" fill="#091A7A"/>
<path d="M109.277 137.024H106.505L106.23 130.606H109.002L109.277 137.024Z" fill="#FFB573"/>
<path d="M130.005 131.171L127.435 131.877L124.145 125.859L126.716 125.153L130.005 131.171Z" fill="#FFB573"/>
<path d="M127.048 131.597L129.824 130.176C129.873 130.152 129.929 130.145 129.983 130.157C130.036 130.168 130.084 130.198 130.119 130.24L131.729 132.182C131.767 132.23 131.795 132.286 131.809 132.345C131.823 132.405 131.823 132.467 131.81 132.527C131.797 132.587 131.77 132.644 131.732 132.692C131.695 132.74 131.646 132.78 131.591 132.807C130.617 133.284 130.116 133.479 128.903 134.094C128.154 134.477 125.923 136.137 124.797 136.446C123.672 136.755 123.235 135.663 123.668 135.438C125.091 134.707 126.185 133.466 126.733 131.963C126.789 131.806 126.901 131.676 127.048 131.597Z" fill="#263238"/>
<path d="M106.512 136.705H109.536C109.591 136.705 109.644 136.724 109.686 136.758C109.729 136.792 109.759 136.84 109.771 136.893L110.319 139.359C110.333 139.419 110.333 139.481 110.319 139.54C110.305 139.6 110.278 139.656 110.239 139.703C110.201 139.75 110.152 139.788 110.096 139.814C110.041 139.839 109.98 139.852 109.919 139.85C108.827 139.833 107.248 139.769 105.887 139.769C104.281 139.769 102.897 139.857 101.015 139.857C99.876 139.857 99.5601 138.704 100.037 138.6C102.204 138.126 103.975 138.076 105.85 136.92C106.047 136.789 106.276 136.714 106.512 136.705Z" fill="#263238"/>
<path d="M118.433 55.8862C118.722 56.6287 119.041 57.3545 119.364 58.0366C119.915 59.2159 120.466 60.2441 120.866 60.9531C121.222 61.5948 121.457 61.9611 121.457 61.9611L127.505 58.9572C127.505 58.9572 125.066 51.9449 122.519 51.162C119.915 50.3993 117.126 52.543 118.433 55.8862Z" fill="#263238"/>
<path opacity="0.2" d="M121.118 56.5791C120.59 56.9655 120.214 58.0105 119.945 59.2369C120.281 59.9089 120.617 60.4969 120.866 60.9538C121.222 61.5956 121.457 61.9618 121.457 61.9618L122.149 61.6258C122.136 59.8926 121.785 58.1786 121.118 56.5791Z" fill="black"/>
<path d="M105.632 60.3586C105.632 61.2994 105.655 62.3376 105.706 63.4834C105.843 66.5914 106.183 70.4654 106.831 75.2803H121.655C121.76 73.0056 120.328 61.9008 122.526 51.1757C120.885 50.8615 119.227 50.6527 117.56 50.5507C115.46 50.4297 113.356 50.4297 111.256 50.5507C109.818 50.6988 108.392 50.956 106.992 51.3202C106.992 51.3202 105.628 52.8624 105.632 60.3586Z" fill="#263238"/>
<path d="M109.445 55.9567C109.225 56.4179 108.979 56.8666 108.709 57.3007C108.464 57.6971 108.216 58.0802 107.96 58.4498C107.449 59.189 106.915 59.9013 106.354 60.5968C105.225 62.0086 103.973 63.3185 102.614 64.5112C101.89 65.1464 101.113 65.7196 100.293 66.2248L99.9566 66.4197L99.8693 66.4667L99.7483 66.5272L99.503 66.6448C99.1875 66.7937 98.8561 66.9064 98.5152 66.9808C97.9116 67.1021 97.2934 67.1338 96.6806 67.0749C95.6579 66.9531 94.6641 66.6541 93.744 66.1912C93.3183 65.9827 92.9064 65.747 92.5109 65.4856C92.1102 65.2259 91.7275 64.9397 91.3651 64.6288L92.5545 62.6128C94.0094 62.9959 95.6491 63.3386 96.7781 63.1773C97.0115 63.155 97.239 63.0913 97.4501 62.9891C97.5195 62.9552 97.5849 62.9135 97.6449 62.8648L97.6752 62.8346H97.6954L97.7424 62.7976L97.9474 62.6565C98.5226 62.2183 99.0681 61.7424 99.5803 61.2319C100.677 60.1217 101.698 58.9385 102.635 57.6904C103.115 57.0621 103.579 56.417 104.026 55.7685C104.244 55.4325 104.462 55.1234 104.664 54.8042C104.866 54.485 105.067 54.1591 105.171 53.9541L109.445 55.9567Z" fill="#FFB573"/>
<path d="M93.1459 62.8926L90.5889 61.6797L90.3571 65.1102C90.3571 65.1102 92.3462 65.4462 93.3979 64.6768L93.1459 62.8926Z" fill="#FFB573"/>
<path d="M87.3668 62.2643L88.3513 64.8784L90.3572 65.1102L90.5891 61.6797L87.3668 62.2643Z" fill="#FFB573"/>
<path d="M111.276 54.1395C111.189 56.7906 105.732 62.8923 105.732 62.8923L99.9701 59.1359C99.9701 59.1359 101.808 55.7087 104.16 53.2323C107.752 49.5027 111.381 50.961 111.276 54.1395Z" fill="#263238"/>
<path opacity="0.2" d="M106.23 130.606L106.371 133.916H109.146L109.005 130.606H106.23Z" fill="black"/>
<path opacity="0.2" d="M126.716 125.153L124.145 125.862L125.842 128.964L128.412 128.255L126.716 125.153Z" fill="black"/>
<path d="M116.592 41.879C116.481 44.6275 116.558 46.247 115.201 47.6818C113.158 49.8422 109.744 48.6562 109.032 45.9312C108.39 43.475 108.679 39.3926 111.344 38.2435C111.93 37.9868 112.572 37.8845 113.209 37.9462C113.846 38.0079 114.457 38.2316 114.983 38.596C115.509 38.9604 115.933 39.4535 116.215 40.0281C116.496 40.6028 116.626 41.24 116.592 41.879Z" fill="#FFB573"/>
<path d="M111.105 43.1891C110.114 42.4835 109.143 41.0286 109.22 39.9467C108.303 39.9098 107.688 38.3978 108.192 37.2957C108.508 38.0046 109.6 37.4838 110.027 36.9227C109.798 36.3818 109.835 35.4846 111.404 34.8496C111.273 35.3066 111.34 36.076 112.916 35.5216C114.828 34.8496 118.188 35.2998 117.204 37.5746C118.548 37.8198 120.298 40.5986 118.813 42.0602C117.328 43.5218 117.022 45.8838 115.752 46.1258C114.482 46.3677 111.179 46.4517 111.105 43.1891Z" fill="#263238"/>
<path d="M116.31 37.4836C116.844 37.2613 117.438 37.2255 117.995 37.3822C118.552 37.5389 119.04 37.8789 119.381 38.3472C118.414 37.8857 117.375 37.5936 116.31 37.4836Z" fill="#263238"/>
<path d="M111.827 43.0718C111.8 43.6823 111.572 44.2668 111.179 44.735C110.655 45.3465 110.08 44.9903 109.963 44.2679C109.858 43.6194 110.006 42.5174 110.658 42.1713C111.31 41.8252 111.851 42.3359 111.827 43.0718Z" fill="#FFB573"/>
<path d="M112.09 75.2803C112.09 75.2803 110.783 96.2568 113.262 103.991C117.187 116.242 124.189 128.758 124.189 128.758L129.195 127.253C129.195 127.253 123.688 114.041 121.877 103.733C120.251 94.4625 121.656 82.8638 121.656 75.2904L112.09 75.2803Z" fill="#091A7A"/>
<path opacity="0.2" d="M111.888 79.9673C113.286 79.5607 114.378 79.7153 114.66 80.9585C115.399 84.2076 113.182 92.779 112.076 96.7001C111.619 91.0553 111.723 84.3353 111.888 79.9673Z" fill="black"/>
<path d="M122.774 127.323C122.754 127.323 124.081 128.872 124.081 128.872L129.552 127.226L128.856 125.378L122.774 127.323Z" fill="#263238"/>
<path d="M106.848 75.2803C106.848 75.2803 102.671 92.9774 102.376 101.431C102.04 110.913 105.356 133.274 105.356 133.274H110.06C110.06 133.274 110.638 110.738 110.846 102.103C111.075 92.6952 116.599 75.2803 116.599 75.2803H106.848Z" fill="#091A7A"/>
<path d="M104.435 131.406C104.415 131.406 104.701 133.355 104.701 133.355H110.413L110.567 131.615L104.435 131.406Z" fill="#263238"/>
<path d="M108.904 49.9025C109.542 49.6808 114.384 49.0659 117.899 49.254C119.915 49.3616 121.037 49.59 121.857 49.9764C122.677 50.3628 121.208 52.3688 120.53 52.614C120.805 53.3801 119.276 54.3579 118.406 54.8216C118.07 55.5406 114.619 56.2059 112.603 54.6603C111.054 53.4708 107.093 50.5308 108.904 49.9025Z" fill="#091A7A"/>
</svg>
